<?xml version="1.0" encoding="UTF-8"?>
<svg id="Layer_1" xmlns="http://www.w3.org/2000/svg" version="1.1" viewBox="0 0 1000 132">
  <!-- Generator: Adobe Illustrator 29.4.0, SVG Export Plug-In . SVG Version: 2.1.0 Build 152)  -->
  <defs>
    <style>
      .st0 {
        fill: #3f0d1a;
      }
    </style>
  </defs>
  <path class="st0" d="M498.34,8.5h-16.61v48.54h-51.59V8.5h-16.61v102.07c.27,4.35,3.9,7.79,8.29,7.79s8.06-3.55,8.32-7.9v.08-47.77h51.59v47.31c0,4.62,3.7,8.29,8.32,8.29s8.32-3.74,8.32-8.32c0-.08,0,0,0,0V8.5h-.04Z"/>
  <path class="st0" d="M810.75,8.5h-16.57v101.85h0c.08,4.43,3.74,8.02,8.21,8.02s8.25-3.59,8.32-8.02h0V8.5h.04Z"/>
  <path class="st0" d="M383.13,97.82c-1.34,0-2.56.53-3.48,1.41h0c-8.25,7.41-18.75,11.53-29.56,11.53-21.35,0-36.81-20.2-36.81-48.08s15.47-48.08,36.81-48.08c10.54,0,20.62,3.48,28.45,9.81l4.47,3.63v-12.72l-1.45-.76c-9.36-5-19.93-7.52-31.47-7.52-30.66,0-54.68,24.44-54.68,55.68s24.02,55.68,54.68,55.68c13.59,0,25.55-3.67,34.64-10.62l1.37-1.15c1.15-.92,1.91-2.29,1.91-3.9,0-2.71-2.21-4.93-4.93-4.93h.04Z"/>
  <path class="st0" d="M156.99,62.96h-36.32l-.08,49.22h44.18c1.64,0,2.98,1.34,2.98,2.98s-1.34,2.98-2.98,2.98h-60.76V8.54h60.76c1.64,0,2.98,1.34,2.98,2.98s-1.34,2.98-2.98,2.98h-44.14v42.54h36.35c1.64,0,2.98,1.34,2.98,2.94s-1.34,2.98-2.98,2.98"/>
  <path class="st0" d="M279.38,107.79L237.1.25l-45.86,117.81h8.21l13.98-37.35h37.5l12.95,32.88h0c1.6,4.16,6.22,6.34,10.46,4.89,4.35-1.49,6.64-6.22,5.12-10.58v-.11h-.08ZM215.91,74.83l16.38-41.59,16.27,41.62h-32.65v-.04Z"/>
  <path class="st0" d="M36.2,8.5H8.4v101.58c0,4.58,3.7,8.29,8.32,8.29s8.29-3.7,8.32-8.25h0V14.46h7.52c15.85,0,23.56,7.75,23.56,23.75,0,8.06-1.95,13.79-5.92,17.49-3.9,3.63-9.01,5.27-16.54,5.35h0c-1.6,0-2.9,1.3-2.9,2.9s1.3,2.9,2.9,2.9h3.44c6.49,0,12.03-.88,17.49-2.83,12.22-4.35,18.94-13.52,18.94-25.81,0-18.06-14.66-29.71-37.35-29.71Z"/>
  <path class="st0" d="M651.63,118.82l-.08-.08c-.27-.31-18.98-24.36-18.98-24.36,4.05-7.18,6.57-16.23,7.45-26.88l.23-2.67h-6.53l-.19,2.29c-.65,8.36-2.48,15.58-5.42,21.5l-28.14-36.05c6.49-4.66,12.72-10.46,12.72-19.48,0-10.01-7.03-16.73-17.49-16.73-11.42,0-18.83,7.68-18.83,19.55,0,4.01.84,10.31,7.71,19.55-15.66,10.96-22.68,18.64-22.68,32.61,0,15.92,13.1,26.2,33.34,26.2,11.65,0,21.19-2.94,28.45-8.71l16.92,21.73h0s.11.15.19.27c2.41,3.13,6.91,3.74,10.04,1.34,3.13-2.41,3.74-6.91,1.34-10.04l-.04-.04ZM595.11,23.13c5.58,0,6.76,5.31,6.76,9.74,0,5.58-2.06,10.35-6.15,14.24l-.19-.27c-6.91-8.86-6.91-12.11-6.91-15.89,0-1.83.46-7.83,6.49-7.83ZM595.91,107.48c-12.07,0-19.28-7.98-19.28-21.35,0-10.04,3.55-17.68,11.8-25.05l30.55,39.18c-5.96,4.81-13.71,7.22-23.07,7.22Z"/>
  <path class="st0" d="M764.51,112.14h-38.07V8.46h-16.61v109.6h54.68c1.64,0,2.98-1.34,2.98-2.98s-1.34-2.94-2.94-2.98l-.04.04Z"/>
  <path class="st0" d="M898.47,112.18h-38.07V8.5h-16.61v109.6h54.68c1.64,0,2.98-1.34,2.98-2.98s-1.34-2.94-2.94-2.98l-.04.04Z"/>
  <path class="st0" d="M956.97,109.77v-2.21l-.15-41.32,33.83-57.78h-6.45l-29.56,50.48-29.98-50.48h-18.83l34.44,58.39v43.3c0,4.54,3.7,8.21,8.32,8.21s8.32-3.67,8.32-8.21v-.38h.04Z"/>
</svg>